<svg xmlns="http://www.w3.org/2000/svg" version="1.1" xmlns:xlink="http://www.w3.org/1999/xlink" xmlns:svgjs="http://svgjs.dev/svgjs" width="1500" height="1500" viewBox="0 0 1500 1500"><rect width="1500" height="1500" fill="#000000"></rect><g transform="matrix(0.6666666666666666,0,0,0.6666666666666666,249.39393939393938,629.887051828332)"><svg viewBox="0 0 396 95" data-background-color="#ffffff" preserveAspectRatio="xMidYMid meet" height="359" width="1500" xmlns="http://www.w3.org/2000/svg" xmlns:xlink="http://www.w3.org/1999/xlink"><g id="tight-bounds" transform="matrix(1,0,0,1,0.2400000000000091,0.17714516563427196)"><svg viewBox="0 0 395.52 94.64570966873147" height="94.64570966873147" width="395.52"><g><svg viewBox="0 0 395.52000000000004 94.64570966873148" height="94.64570966873147" width="395.52"><g><svg viewBox="0 0 395.52000000000004 94.64570966873148" height="94.64570966873148" width="395.52000000000004"><g id="textblocktransform"><svg viewBox="0 0 395.52000000000004 94.64570966873148" height="94.64570966873148" width="395.52000000000004" id="textblock"><g><svg viewBox="0 0 395.52000000000004 94.64570966873148" height="94.64570966873148" width="395.52000000000004"><g transform="matrix(1,0,0,1,0,0)"><svg width="395.52000000000004" viewBox="3.56 -35.91 181.29 43.379999999999995" height="94.64570966873148" data-palette-color="#a04ac1"><path d="M37.45-16.82L37.45-16.82 37.45-16.36Q37.4-14.31 37.02-12.11 36.65-9.91 35.96-7.71 35.28-5.52 34.33-3.37 33.37-1.22 32.19 0.74 31.01 2.71 29.64 4.43 28.27 6.15 26.76 7.47L26.76 7.47 23.12 5.37Q23.97 3.93 24.67 2.23 25.37 0.54 25.93-1.32 26.49-3.17 26.89-5.13 27.29-7.08 27.56-9.01 27.83-10.94 27.97-12.81 28.1-14.67 28.1-16.36L28.1-16.36Q28.1-17.68 28.09-19.35 28.08-21.02 27.89-22.75 27.71-24.49 27.29-26.14 26.88-27.78 26.06-29.08 25.24-30.37 23.96-31.15 22.68-31.93 20.78-31.93L20.78-31.93Q19.09-31.93 17.88-31.36 16.67-30.79 15.83-29.82 14.99-28.86 14.49-27.59 13.99-26.32 13.71-24.91 13.43-23.51 13.34-22.08 13.26-20.65 13.26-19.38L13.26-19.38 13.26-12.57 23.78-12.57 23.78-8.54 13.26-8.54 13.26 0 3.56 0 3.56-17.87Q3.56-21.7 4.79-25 6.01-28.3 8.24-30.73 10.47-33.15 13.61-34.53 16.75-35.91 20.61-35.91L20.61-35.91Q23.22-35.91 25.5-35.17 27.78-34.42 29.66-33.12 31.54-31.81 33.02-30.02 34.5-28.22 35.49-26.1 36.47-23.97 36.99-21.61 37.5-19.24 37.45-16.82ZM77.83-17.63L77.83-17.63Q77.83-15.06 77.15-12.76 76.46-10.45 75.23-8.5 74-6.54 72.29-4.97 70.58-3.39 68.52-2.29 66.45-1.2 64.1-0.6 61.74 0 59.25 0L59.25 0 43.75 0 43.75-35.16 59.25-35.16Q61.74-35.16 64.08-34.57 66.43-33.98 68.49-32.9 70.55-31.81 72.28-30.25 74-28.69 75.23-26.75 76.46-24.8 77.15-22.5 77.83-20.19 77.83-17.63ZM67.99-17.63L67.99-17.63Q67.99-20.48 67.29-23.06 66.6-25.63 65.13-27.59 63.67-29.54 61.41-30.69 59.15-31.84 56-31.84L56-31.84 53.44-31.84 53.44-3.42 56-3.42Q59.1-3.42 61.36-4.58 63.62-5.74 65.1-7.7 66.57-9.67 67.28-12.23 67.99-14.79 67.99-17.63ZM88.28-24.12L88.28 0 83.78 0 83.78-35.16 90.08-35.16 111.45-11.01 111.45-35.16 115.91-35.16 115.91 0 109.61 0 88.28-24.12ZM149.11-4.49L149.11 0 123.87 0 123.87-35.16 149.11-35.16 149.11-30.66 133.56-30.66 133.56-19.8 145.57-19.8 145.57-15.33 133.56-15.33 133.56-4.49 149.11-4.49ZM171.89-19.36L184.85 0 174.97 0 166.71-12.33 158.27 0 151.43 0 164.13-16.16 151.43-35.16 161.32-35.16 169.3-23.22 178.02-35.16 184.85-35.16 171.89-19.36Z" opacity="1" transform="matrix(1,0,0,1,0,0)" fill="#ffffff" class="wordmark-text-0" data-fill-palette-color="primary" id="text-0"></path></svg></g></svg></g></svg></g></svg></g></svg></g><defs></defs></svg><rect width="395.52" height="94.64570966873147" fill="none" stroke="none" visibility="hidden"></rect></g></svg></g></svg>